<svg id="Layer_1" height="512" viewBox="0 0 512 512" width="512" xmlns="http://www.w3.org/2000/svg" data-name="Layer 1"><path d="m382.74 195.56a20.528 20.528 0 0 0 -18.23-15.64v.24l-.51-52.827h-195.667v45.294a14.621 14.621 0 0 1 -13.433 8.963l-7.37-1.68a20.549 20.549 0 0 0 -18.27 15.65 27.351 27.351 0 0 0 21.76 33.41v.17l5.62 19.35a120.275 120.275 0 0 0 34.29 63.41 106.639 106.639 0 0 0 16.71 13.21c14.1 8.98 30.22 14.3 47.31 14.3 17.29 0 33.85-5.44 48.41-14.62 26.38-16.61 46.21-45.46 52-76.3l5.62-19.35v-.17a27.351 27.351 0 0 0 21.76-33.41z" fill="#ffcfae"/><path d="m249.184 331.41a96.275 96.275 0 0 1 -11.544-6.3 106.639 106.639 0 0 1 -16.71-13.21 120.275 120.275 0 0 1 -34.29-63.41 67.619 67.619 0 0 1 .267-38.62l3.114-10.194a188.436 188.436 0 0 0 8.312-55.346v-17h-30v45.294a14.621 14.621 0 0 1 -13.433 8.966l-7.37-1.68a20.549 20.549 0 0 0 -18.27 15.65 27.351 27.351 0 0 0 21.76 33.41v.17l5.62 19.35a120.275 120.275 0 0 0 34.29 63.41 106.639 106.639 0 0 0 16.71 13.21 91.4 91.4 0 0 0 30.03 12.458q2.959.63 5.976 1.049.378.052.757.1c.545.07 1.09.139 1.637.2.676.074 1.353.138 2.032.2.405.034.812.063 1.218.091q.983.069 1.97.114c.3.014.594.027.893.037.929.032 1.86.054 2.794.054a83.8 83.8 0 0 0 15.029-1.38 87.92 87.92 0 0 1 -20.792-6.623z" fill="#f7b589"/><path d="m127.86 388.5 79.89-25.94a98.075 98.075 0 0 0 50.17 12.93l.01.2.44 120.31h-169.87v-54.55a53.759 53.759 0 0 1 1.3-12.2c.17-.72.35-1.43.54-2.14 5.04-18.38 19.42-32.73 37.52-38.61z" fill="#1ae5be"/><path d="m339.26 373.93 44.88 14.57c18.1 5.88 32.48 20.23 37.52 38.61.19.71.37 1.42.54 2.14a53.759 53.759 0 0 1 1.3 12.2v54.55h-165.13l-.44-120.31-.01-.2a98.5 98.5 0 0 0 46.33-12.93z" fill="#1ae5be"/><path d="m303.36 324.79.89 37.77a96.367 96.367 0 0 1 -96.5 0l-.12-37.43.01-.02c14.1 8.98 30.22 14.3 47.31 14.3 17.29 0 33.85-5.44 48.41-14.62z" fill="#ffd8b7"/><path d="m329.26 267.26a100.282 100.282 0 0 0 -4.6-26.39 18.593 18.593 0 0 0 -3.27-6.23 19.147 19.147 0 0 0 -8.45-6.06 172.33 172.33 0 0 0 -71.72-10.13 191.861 191.861 0 0 0 -47.96 9.39 18.859 18.859 0 0 0 -9.1 6.5 18.6 18.6 0 0 0 -3.71 9.14c-.7 5.91-1.21 12.2-1.46 18.84-.45 12.54 2.91 24.43 6.17 33.09a57.16 57.16 0 0 0 2.62 6.12 25.775 25.775 0 0 0 3.69 5.47 21.929 21.929 0 0 0 10.92 6.65c15.19 3.91 27.7 6.96 51.2 6.97a204.644 204.644 0 0 0 52.8-6.58 27.885 27.885 0 0 0 12.6-7.1 27.5 27.5 0 0 0 7.49-13.32 101.473 101.473 0 0 0 2.78-26.36z" fill="#b0b5ca"/><path d="m162.1 466.18a4.07 4.07 0 0 1 .5-.03 7.768 7.768 0 1 1 -.5.03z" fill="#d8ff33"/><path d="m196.05 471.7a7.55 7.55 0 1 1 7.55 7.54 7.55 7.55 0 0 1 -7.55-7.54z" fill="#d8ff33"/><path d="m320.57 437.89a17.165 17.165 0 1 1 -17.17 17.17 17.173 17.173 0 0 1 17.17-17.17z" fill="#fc8193"/><path d="m364.51 179.92v.24s-92.7 3.57-154.88-51.92a321.6 321.6 0 0 0 58.27-9.77c.66.83 31.3 39.46 96.61 43.67z" fill="#4a5160"/><path d="m147.53 179.91v-55.26a108.49 108.49 0 1 1 216.98 0v37.49c-65.31-4.21-95.95-42.84-96.61-43.67a321.6 321.6 0 0 1 -58.27 9.77 326.467 326.467 0 0 1 -38.39.98l-1.8 39.45a14.5 14.5 0 0 1 -21.91 11.88z" fill="#6d7486"/><path d="m221.47 307a25.775 25.775 0 0 1 -3.69-5.47 57.16 57.16 0 0 1 -2.62-6.12c-3.26-8.66-6.62-20.55-6.17-33.09.25-6.64.76-12.93 1.46-18.84a18.6 18.6 0 0 1 3.71-9.14 18.859 18.859 0 0 1 9.1-6.5 191.974 191.974 0 0 1 45.043-9.172 181.431 181.431 0 0 0 -27.083-.218 191.861 191.861 0 0 0 -47.96 9.39 18.859 18.859 0 0 0 -9.1 6.5 18.6 18.6 0 0 0 -3.71 9.14c-.7 5.91-1.21 12.2-1.46 18.84-.45 12.54 2.91 24.43 6.17 33.09a57.16 57.16 0 0 0 2.62 6.12 25.775 25.775 0 0 0 3.69 5.47 21.929 21.929 0 0 0 10.92 6.65c15.19 3.91 27.7 6.96 51.2 6.97 5.3 0 10.31-.17 15.068-.485-14.6-1.009-24.651-3.5-36.268-6.485a21.929 21.929 0 0 1 -10.92-6.65z" fill="#ccd3df"/><path d="m127.86 388.5c-18.1 5.88-32.48 20.23-37.52 38.61-.19.71-.37 1.42-.54 2.14a53.759 53.759 0 0 0 -1.3 12.2v54.55h30v-54.55a53.759 53.759 0 0 1 1.3-12.2c.17-.72.35-1.43.54-2.14 5.04-18.38 19.42-32.73 37.52-38.61l61.99-20.128a105.994 105.994 0 0 1 -12.1-5.812z" fill="#29b79c"/><path d="m237.67 337.568a91.378 91.378 0 0 1 -30.03-12.458l-.01.02.12 37.43a98.075 98.075 0 0 0 50.17 12.93 94.19 94.19 0 0 0 13.086-1.2q-1.866-.3-3.726-.677a36.908 36.908 0 0 1 -29.61-36.049z" fill="#f7b589"/><path d="m221.3 47.82c16.3-16.319 25.762-27.463 49.719-30.781a108.546 108.546 0 0 0 -123.489 107.611v55.9a14.5 14.5 0 0 0 21.91-11.88l1.8-39.45s23.261.116 27.29.163v-4.733c0-30 3.14-57.16 22.77-76.83z" fill="#555d6b"/><g fill="#344d6b"><path d="m427.444 425.523c-5.517-20.119-21.012-36.092-41.45-42.729l-75.841-24.626-.714-30.184a117.67 117.67 0 0 0 14.681-11.7c19.182-17.946 32.343-41.513 37.08-66.393l4.616-15.9a33.358 33.358 0 0 0 22.747-39.85 26.3 26.3 0 0 0 -18.05-19.1v-50.388c0-63.22-51.361-114.653-114.491-114.653s-114.49 51.433-114.49 114.653v50.37a26.3 26.3 0 0 0 -18.1 19.115 33.36 33.36 0 0 0 22.748 39.848l4.616 15.9a125.521 125.521 0 0 0 35.965 66.332 113.016 113.016 0 0 0 14.872 12.1l.094 29.886-75.726 24.588c-20.437 6.637-35.932 22.61-41.45 42.731-.215.785-.415 1.575-.6 2.365a59.191 59.191 0 0 0 -1.451 13.559v54.553a6 6 0 0 0 6 6h335a6 6 0 0 0 6-6v-54.553a59.173 59.173 0 0 0 -1.454-13.552q-.279-1.195-.602-2.372zm-106.771-199.642a24.9 24.9 0 0 0 -5.7-2.943 177.315 177.315 0 0 0 -74.137-10.473 197.776 197.776 0 0 0 -49.464 9.68 24.781 24.781 0 0 0 -6.205 3.087l-25.324-37.248a20.868 20.868 0 0 0 4.841-1.884 20.4 20.4 0 0 0 10.755-17.155l1.526-33.562c6.311.091 17.128.02 30.607-.962 32.8 28.369 73.253 40.931 101.666 46.479a289.392 289.392 0 0 0 42.986 5.122zm-95.975-93.1q2.065-.246 4.179-.522a312.089 312.089 0 0 0 36.964-7.008c8.693 9.461 38.5 37.227 92.672 42.415v6.511c-19.413-.327-83.913-4.331-133.813-41.396zm152.208 64.2a21.345 21.345 0 0 1 -16.966 26.08 6 6 0 0 0 -4.888 4.961l-5.452 18.795a5.754 5.754 0 0 0 -.136.566 109.338 109.338 0 0 1 -15.316 38.057 103.523 103.523 0 0 0 1.116-18.359 104.832 104.832 0 0 0 -4.856-27.95 24.507 24.507 0 0 0 -1.667-4.1l38.359-48.467a14.325 14.325 0 0 1 9.806 10.42zm-223.374-72.328c0-56.603 45.977-102.653 102.49-102.653s102.491 46.05 102.491 102.653v30.954c-29.219-3.035-50.406-13.268-63.322-21.626a116.258 116.258 0 0 1 -16.129-12.506c20.632-6.535 38.117-15.259 52.252-26.116a6 6 0 1 0 -7.314-9.517c-54.484 41.85-151.483 37.436-152.459 37.386a6 6 0 0 0 -6.3 5.72l-1.791 39.452a8.582 8.582 0 0 1 -9.918 8.08zm21.15 156.25a112.185 112.185 0 0 1 -12.143-33.52 5.754 5.754 0 0 0 -.136-.566l-5.455-18.792a6 6 0 0 0 -4.888-4.961 21.247 21.247 0 0 1 -17.577-20.986 21.467 21.467 0 0 1 .61-5.092 14.29 14.29 0 0 1 9.371-10.278l32.528 47.846a24.558 24.558 0 0 0 -2.5 8.219c-.76 6.394-1.264 12.9-1.5 19.333a79.549 79.549 0 0 0 1.69 18.794zm21.256 22.097c-2.395-2.676-3.754-5.979-5.161-9.706-4.179-11.078-6.127-21.425-5.787-30.754.222-6.109.7-12.284 1.421-18.355a12.9 12.9 0 0 1 8.743-10.655 185.8 185.8 0 0 1 46.46-9.092c4.112-.268 8.068-.391 11.88-.391a164.47 164.47 0 0 1 57.406 10.181 12.991 12.991 0 0 1 8.018 8.39 93.277 93.277 0 0 1 4.344 24.817 95.006 95.006 0 0 1 -2.631 24.817 21.482 21.482 0 0 1 -5.856 10.412 21.915 21.915 0 0 1 -9.892 5.566 198.775 198.775 0 0 1 -51.292 6.395c-23.409-.019-35.6-3.152-49.708-6.781a15.986 15.986 0 0 1 -7.945-4.844zm98.958 19.79a83.6 83.6 0 0 1 -39.947 10.616 81 81 0 0 1 -38.909-10.319 178.994 178.994 0 0 0 37.546 3.536h.193a212.369 212.369 0 0 0 41.121-3.831zm-200.396 167.21v-48.553a47.3 47.3 0 0 1 1.144-10.837c.148-.642.311-1.281.484-1.913 4.446-16.211 17-29.1 33.583-34.489l42.529-13.808 4.012 37.791-9.513 4.223a19.713 19.713 0 0 0 -11.72 18.189v.2l.894 21.124a13.534 13.534 0 1 0 11.981-.7l-.879-20.818a7.716 7.716 0 0 1 4.588-7.034l11.259-5 10.785 4.062a7.7 7.7 0 0 1 4.993 6.909l-.177 19.814a13.561 13.561 0 1 0 11.993.869l.185-20.7c0-.075 0-.15 0-.225a19.654 19.654 0 0 0 -12.76-17.891l-9.626-3.626-4.35-40.98 23.249-7.549a104.47 104.47 0 0 0 44.793 12.3l.4 108.635zm69.646-16.3a1.546 1.546 0 1 1 -1.545-1.547 1.547 1.547 0 0 1 1.545 1.547zm37.908-2a1.546 1.546 0 1 1 1.547 1.546 1.549 1.549 0 0 1 -1.547-1.546zm11.679-112.735-.074-23.582a92.269 92.269 0 0 0 41.29 10.027 94.847 94.847 0 0 0 42.651-10.479l.568 24.08a90.671 90.671 0 0 1 -84.435-.048zm203.767 131.035h-153.153l-.4-108.871a104.967 104.967 0 0 0 40.9-12.068l27.422 8.9-11.457 53.939c-.082 0-.162-.006-.243-.006a23.191 23.191 0 1 0 11.821 3.253l11.352-53.452 38.546 12.517c16.584 5.385 29.138 18.278 33.583 34.487q.261.951.486 1.92a47.283 47.283 0 0 1 1.143 10.832zm-85.764-34.943a11.167 11.167 0 1 1 -11.167-11.167 11.18 11.18 0 0 1 11.167 11.167z"/><path d="m204.422 253.149a262.929 262.929 0 0 1 97.717 0 6 6 0 0 0 2.23-11.791 274.93 274.93 0 0 0 -102.178 0 6 6 0 0 0 2.231 11.791z"/><path d="m203.307 277.514h99.947a6 6 0 0 0 0-12h-99.947a6 6 0 0 0 0 12z"/><path d="m254.492 306.715a217.447 217.447 0 0 0 50.182-6.166 6 6 0 0 0 -2.84-11.659 205.451 205.451 0 0 1 -47.408 5.825 204.168 204.168 0 0 1 -49.7-5.825 6 6 0 1 0 -2.84 11.659 217.409 217.409 0 0 0 51.4 6.169q.604 0 1.206-.003z"/><path d="m169.632 96.98a6 6 0 0 0 7.785-3.376 84.756 84.756 0 0 1 7.738-15 6 6 0 1 0 -10.064-6.536 96.805 96.805 0 0 0 -8.834 17.132 6 6 0 0 0 3.375 7.78z"/><path d="m190.133 68.578a5.984 5.984 0 0 0 4.374-1.892 84.2 84.2 0 0 1 42.456-24.515 6 6 0 0 0 -2.711-11.69 96.169 96.169 0 0 0 -48.491 27.989 6 6 0 0 0 4.372 10.108z"/></g></svg>